<?xml version="1.0" standalone="no"?>
<!DOCTYPE svg PUBLIC "-//W3C//DTD SVG 20010904//EN"
 "http://www.w3.org/TR/2001/REC-SVG-20010904/DTD/svg10.dtd">
<svg version="1.0" xmlns="http://www.w3.org/2000/svg"
 width="100.000000pt" height="100.000000pt" viewBox="0 0 100.000000 100.000000"
 preserveAspectRatio="xMidYMid meet">

<g transform="translate(0.000000,100.000000) scale(0.100000,-0.100000)"
fill="#000000" stroke="none">
<path d="M380 841 c-173 -53 -286 -230 -259 -406 20 -129 95 -231 208 -283 46
-22 71 -26 141 -27 77 0 92 3 152 33 108 53 202 175 213 279 l5 38 -10 -38
c-28 -109 -113 -213 -215 -262 -111 -55 -257 -35 -350 47 -89 79 -130 174
-123 291 8 159 120 289 278 323 45 10 49 12 20 12 -19 0 -46 -3 -60 -7z"/>
<path d="M313 540 c-26 -11 -43 -40 -43 -75 0 -54 27 -77 125 -111 61 -20 75
-14 75 33 -1 54 -33 119 -72 143 -36 22 -51 23 -85 10z"/>
</g>
</svg>
